HIERARCHY
ROOT joint_Root
{
	OFFSET 0.0 0.0 0.0
	CHANNELS 6 Xposition Yposition Zposition Zrotation Xrotation Yrotation 
	JOINT Hips
	{
		OFFSET -0.726466 93.3139 -2.00062
		CHANNELS 6 Xposition Yposition Zposition Zrotation Xrotation Yrotation 
		JOINT Spine
		{
			OFFSET 15.7357 0.0 0.0
			CHANNELS 6 Xposition Yposition Zposition Zrotation Xrotation Yrotation 
			JOINT Chest
			{
				OFFSET 8.98455 -0.406207 0.0
				CHANNELS 6 Xposition Yposition Zposition Zrotation Xrotation Yrotation 
				JOINT Neck
				{
					OFFSET 16.3773 0.0 0.0
					CHANNELS 6 Xposition Yposition Zposition Zrotation Xrotation Yrotation 
					JOINT Head
					{
						OFFSET 6.45672 0.0 0.0
						CHANNELS 6 Xposition Yposition Zposition Zrotation Xrotation Yrotation 
						End Site
						{
							OFFSET 0.0 0.0 0.0
						}
					}
				}
				JOINT Shoulder_L
				{
					OFFSET 12.9942 -0.242716 4.98039
					CHANNELS 6 Xposition Yposition Zposition Zrotation Xrotation Yrotation 
					JOINT UpperArm_L
					{
						OFFSET 5.34809 0.0 0.0
						CHANNELS 6 Xposition Yposition Zposition Zrotation Xrotation Yrotation 
						JOINT LowerArm_L
						{
							OFFSET 24.3286 1.87007e-05 0.0
							CHANNELS 6 Xposition Yposition Zposition Zrotation Xrotation Yrotation 
							JOINT Hand_L
							{
								OFFSET 22.2916 0.0 0.0
								CHANNELS 6 Xposition Yposition Zposition Zrotation Xrotation Yrotation 
								End Site
								{
									OFFSET 0.0 0.0 0.0
								}
							}
						}
					}
				}
				JOINT Shoulder_R
				{
					OFFSET 12.9945 -0.242716 -4.98039
					CHANNELS 6 Xposition Yposition Zposition Zrotation Xrotation Yrotation 
					JOINT UpperArm_R
					{
						OFFSET -5.34813 0.0 0.0
						CHANNELS 6 Xposition Yposition Zposition Zrotation Xrotation Yrotation 
						JOINT LowerArm_R
						{
							OFFSET -24.3289 0.000322201 0.0
							CHANNELS 6 Xposition Yposition Zposition Zrotation Xrotation Yrotation 
							JOINT Hand_R
							{
								OFFSET -22.2915 -0.000108084 0.0
								CHANNELS 6 Xposition Yposition Zposition Zrotation Xrotation Yrotation 
								End Site
								{
									OFFSET 0.0 0.0 0.0
								}
							}
						}
					}
				}
			}
		}
		JOINT UpperLeg_L
		{
			OFFSET -2.19248 -6.46944 0.0
			CHANNELS 6 Xposition Yposition Zposition Zrotation Xrotation Yrotation 
			JOINT LowerLeg_L
			{
				OFFSET 39.0811 0.0 -1.23785e-05
				CHANNELS 6 Xposition Yposition Zposition Zrotation Xrotation Yrotation 
				JOINT Foot_L
				{
					OFFSET 40.9854 0.0 -1.26872e-05
					CHANNELS 6 Xposition Yposition Zposition Zrotation Xrotation Yrotation 
					JOINT Toes_L
					{
						OFFSET 11.7543 0.0 0.0
						CHANNELS 6 Xposition Yposition Zposition Zrotation Xrotation Yrotation 
						End Site
						{
							OFFSET 0.0 0.0 0.0
						}
					}
				}
			}
		}
		JOINT UpperLeg_R
		{
			OFFSET -2.19251 6.46944 0.0
			CHANNELS 6 Xposition Yposition Zposition Zrotation Xrotation Yrotation 
			JOINT LowerLeg_R
			{
				OFFSET -39.0811 -0.00228153 -0.0401928
				CHANNELS 6 Xposition Yposition Zposition Zrotation Xrotation Yrotation 
				JOINT Foot_R
				{
					OFFSET -40.9854 0.0 0.0
					CHANNELS 6 Xposition Yposition Zposition Zrotation Xrotation Yrotation 
					JOINT Toes_R
					{
						OFFSET -11.7543 0.0 0.0
						CHANNELS 6 Xposition Yposition Zposition Zrotation Xrotation Yrotation 
						End Site
						{
							OFFSET 0.0 0.0 0.0
						}
					}
				}
			}
		}
	}
}
MOTION
Frames:	7
Frame Time:	0.0333333
0.000000 0.000000 0.000000 0.000000 0.000000 -0.000000 0.300921 92.534800 -2.488720 87.482500 -3.314760 3.228210 15.735700 0.000005 -0.000001 92.066300 86.107800 -92.670000 8.984550 -0.406207 -0.000000 0.015214 0.321428 -1.206550 16.377300 -0.000001 -0.000001 2.571850 -1.777070 2.389330 6.456720 -0.000001 -0.000000 3.182770 -2.385690 -1.343110 12.994200 -0.242716 4.980390 -89.769400 -0.694096 -71.623400 5.348090 -0.000007 -0.000001 -67.156500 39.083200 -13.978700 24.328600 0.000019 0.000005 1.337240 3.232210 -22.489700 22.291600 -0.000001 0.000005 4.704580 5.509670 -6.927890 12.994500 -0.242716 -4.980390 90.305900 -0.906090 -71.342700 -5.348130 -0.000001 -0.000004 -78.029400 -29.303700 -98.314600 -24.328900 0.000322 -0.000009 12.396800 -0.048837 -90.223500 -22.291500 -0.000108 -0.000004 21.188700 5.365350 -1.843450 -2.192480 -6.469440 -0.000000 -176.055000 -5.966050 -3.717770 39.081100 -0.000007 -0.000012 -0.070403 0.171371 22.334000 40.985400 -0.000006 -0.000013 0.301338 1.817260 -65.557700 11.754300 -0.000000 0.000003 -0.000046 -0.000527 -16.598000 -2.192510 6.469440 -0.000001 -179.641000 12.012200 178.942000 -39.081100 -0.002282 -0.040193 0.026575 -0.069989 18.376500 -40.985400 0.000008 0.000006 4.837480 7.301360 -64.603200 -11.754300 -0.000006 -0.000006 -0.006486 -0.075190 -19.633600
0.000000 0.000000 0.000000 0.000000 0.000000 -0.000000 0.320126 92.540600 -2.483760 87.478600 -3.285900 3.195250 15.735700 0.000005 -0.000001 92.050000 86.114800 -92.647100 8.984550 -0.406207 -0.000000 0.001268 0.318329 -1.193570 16.377300 -0.000001 -0.000001 2.592520 -1.813970 2.396730 6.456720 -0.000001 -0.000000 3.199370 -2.444330 -1.348100 12.994200 -0.242716 4.980390 -89.772500 -0.684559 -71.615400 5.348090 -0.000007 -0.000001 -67.269000 39.140900 -13.884700 24.328600 0.000019 0.000005 1.334530 3.219110 -22.530800 22.291600 -0.000001 0.000005 4.699490 5.508760 -6.890220 12.994500 -0.242716 -4.980390 90.309200 -0.911080 -71.252300 -5.348130 -0.000001 -0.000004 -77.971600 -29.376300 -98.500800 -24.328900 0.000322 -0.000009 12.595800 -0.028846 -90.130400 -22.291500 -0.000108 -0.000004 21.257800 5.365070 -1.834680 -2.192480 -6.469440 -0.000000 -176.062000 -6.010190 -3.732660 39.081100 -0.000007 -0.000012 -0.070083 0.170907 22.296700 40.985400 -0.000006 -0.000013 0.331424 1.894190 -65.541500 11.754300 -0.000000 0.000003 -0.000054 -0.000610 -16.601200 -2.192510 6.469440 -0.000001 -179.650000 12.010200 178.929000 -39.081100 -0.002282 -0.040193 0.025441 -0.066730 18.336700 -40.985400 0.000008 0.000006 4.718030 7.295670 -64.536400 -11.754300 -0.000006 -0.000006 -0.006207 -0.072702 -19.532100
0.000000 0.000000 0.000000 0.000000 0.000000 -0.000000 0.338842 92.534800 -2.475390 87.469500 -3.244210 3.172220 15.735700 0.000005 -0.000001 91.905900 86.113400 -92.485400 8.984550 -0.406207 -0.000000 0.004544 0.297700 -1.158300 16.377300 -0.000001 -0.000001 2.580110 -1.880670 2.442560 6.456720 -0.000001 -0.000000 3.175130 -2.478990 -1.416470 12.994200 -0.242716 4.980390 -89.784600 -0.648771 -71.628600 5.348090 -0.000007 -0.000001 -67.359900 39.249200 -13.755400 24.328600 0.000019 0.000005 1.342780 3.237200 -22.542400 22.291600 -0.000001 0.000005 4.764790 5.508970 -6.899100 12.994500 -0.242716 -4.980390 90.320700 -0.940513 -71.172400 -5.348130 -0.000001 -0.000004 -77.918700 -29.533900 -98.628100 -24.328900 0.000322 -0.000009 12.612600 -0.029972 -90.135300 -22.291500 -0.000108 -0.000004 21.363900 5.364420 -1.814850 -2.192480 -6.469440 -0.000000 -176.068000 -6.003850 -3.785950 39.081100 -0.000007 -0.000012 -0.069556 0.169175 22.350000 40.985400 -0.000006 -0.000013 0.345697 1.898330 -65.567500 11.754300 -0.000000 0.000003 -0.000043 -0.000496 -16.596900 -2.192510 6.469440 -0.000001 -179.648000 12.053100 178.914000 -39.081100 -0.002282 -0.040193 0.026634 -0.070275 18.350300 -40.985400 0.000008 0.000006 4.787180 7.282360 -64.589900 -11.754300 -0.000006 -0.000006 -0.006744 -0.077454 -19.726000
0.000000 0.000000 0.000000 0.000000 0.000000 -0.000000 0.364439 92.543900 -2.478510 87.451200 -3.212700 3.127380 15.735700 0.000005 -0.000001 91.801400 86.122200 -92.344700 8.984550 -0.406207 -0.000000 -0.012681 0.280609 -1.085830 16.377300 -0.000001 -0.000001 2.519600 -1.964680 2.457830 6.456720 -0.000001 -0.000000 3.173920 -2.565680 -1.507110 12.994200 -0.242716 4.980390 -89.797400 -0.611102 -71.654600 5.348090 -0.000007 -0.000001 -67.515900 39.323500 -13.574600 24.328600 0.000019 0.000005 1.330690 3.210510 -22.526600 22.291600 -0.000001 0.000005 4.664400 5.509140 -6.906000 12.994500 -0.242716 -4.980390 90.333300 -0.972946 -71.087700 -5.348130 -0.000001 -0.000004 -77.801100 -29.726200 -98.593400 -24.328900 0.000322 -0.000009 12.569200 -0.061217 -90.275900 -22.291500 -0.000108 -0.000004 21.375100 5.364370 -1.813160 -2.192480 -6.469440 -0.000000 -176.064000 -5.903470 -3.802200 39.081100 -0.000007 -0.000012 -0.071368 0.174050 22.295700 40.985400 -0.000006 -0.000013 0.350942 1.904310 -65.545400 11.754300 -0.000000 0.000003 -0.000049 -0.000556 -16.599100 -2.192510 6.469440 -0.000001 -179.635000 12.039000 178.885000 -39.081100 -0.002282 -0.040193 0.025572 -0.067265 18.301100 -40.985400 0.000008 0.000006 4.692300 7.252760 -64.498400 -11.754300 -0.000006 -0.000006 -0.006383 -0.074272 -19.596200
0.000000 0.000000 0.000000 0.000000 0.000000 -0.000000 0.402407 92.538500 -2.473530 87.455000 -3.236410 3.170550 15.735700 0.000005 -0.000001 91.707800 86.088100 -92.219200 8.984550 -0.406207 -0.000000 0.055605 0.267500 -1.022180 16.377300 -0.000001 -0.000001 2.452140 -2.025860 2.471000 6.456720 -0.000001 -0.000000 3.088640 -2.576670 -1.587080 12.994200 -0.242716 4.980390 -89.801900 -0.597583 -71.659800 5.348090 -0.000007 -0.000001 -67.656000 39.370400 -13.427900 24.328600 0.000019 0.000005 1.397290 3.375020 -22.505100 22.291600 -0.000001 0.000005 4.626530 5.509050 -6.902240 12.994500 -0.242716 -4.980390 90.331300 -0.965110 -71.051700 -5.348130 -0.000001 -0.000004 -77.437600 -29.991100 -98.172100 -24.328900 0.000322 -0.000009 12.593900 -0.153256 -90.687200 -22.291500 -0.000108 -0.000004 21.511800 5.360930 -1.708290 -2.192480 -6.469440 -0.000000 -176.108000 -5.887580 -3.781820 39.081100 -0.000007 -0.000012 -0.069788 0.169843 22.337600 40.985400 -0.000006 -0.000013 0.369327 1.806460 -65.566100 11.754300 -0.000000 0.000003 -0.000043 -0.000492 -16.596700 -2.192510 6.469440 -0.000001 -179.675000 12.033400 178.892000 -39.081100 -0.002282 -0.040193 0.025918 -0.068073 18.361400 -40.985400 0.000008 0.000006 4.690560 7.291890 -64.520300 -11.754300 -0.000006 -0.000006 -0.006306 -0.073592 -19.568400
0.000000 0.000000 0.000000 0.000000 0.000000 -0.000000 0.442117 92.543800 -2.488860 87.436400 -3.284980 3.164100 15.735700 0.000005 -0.000001 91.568200 86.069400 -92.015800 8.984550 -0.406207 -0.000000 0.093437 0.245054 -0.894843 16.377300 -0.000001 -0.000001 2.413270 -2.067580 2.482920 6.456720 -0.000001 -0.000000 2.959960 -2.541400 -1.775690 12.994200 -0.242716 4.980390 -89.820400 -0.542804 -71.691100 5.348090 -0.000007 -0.000001 -67.782000 39.436700 -13.218000 24.328600 0.000019 0.000005 1.368550 3.295320 -22.567500 22.291600 -0.000001 0.000005 4.726630 5.506660 -6.803790 12.994500 -0.242716 -4.980390 90.339900 -0.988777 -71.029100 -5.348130 -0.000001 -0.000004 -76.765400 -30.211800 -97.031900 -24.328900 0.000322 -0.000009 12.026300 -0.350449 -91.646400 -22.291500 -0.000108 -0.000004 21.514600 5.357010 -1.588980 -2.192480 -6.469440 -0.000000 -176.120000 -5.932310 -3.785950 39.081100 -0.000007 -0.000012 -0.069978 0.170426 22.323400 40.985400 -0.000006 -0.000013 0.399033 1.792120 -65.553200 11.754300 -0.000000 0.000003 -0.000054 -0.000606 -16.601000 -2.192510 6.469440 -0.000001 -179.682000 11.982400 178.848000 -39.081100 -0.002282 -0.040193 0.025528 -0.066761 18.396100 -40.985400 0.000008 0.000006 4.618060 7.295390 -64.436700 -11.754300 -0.000006 -0.000006 -0.006449 -0.074861 -19.620200
0.000000 0.000000 0.000000 0.000000 0.000000 -0.000000 0.497926 92.537000 -2.493390 87.440500 -3.370290 3.203820 15.735700 0.000005 -0.000001 91.421400 86.035700 -91.795600 8.984550 -0.406207 -0.000000 0.160947 0.221447 -0.748168 16.377300 -0.000001 -0.000001 2.422440 -2.085630 2.474360 6.456720 -0.000001 -0.000000 2.842090 -2.462640 -2.012820 12.994200 -0.242716 4.980390 -89.844200 -0.471856 -71.727900 5.348090 -0.000007 -0.000001 -67.942700 39.403800 -13.004500 24.328600 0.000019 0.000005 1.437990 3.470330 -22.523400 22.291600 -0.000001 0.000005 4.679390 5.509450 -6.919120 12.994500 -0.242716 -4.980390 90.360900 -1.047660 -70.988000 -5.348130 -0.000001 -0.000004 -75.443900 -30.232500 -94.579800 -24.328900 0.000322 -0.000009 10.582200 -0.655764 -93.510800 -22.291500 -0.000108 -0.000004 21.787400 5.355590 -1.545720 -2.192480 -6.469440 -0.000000 -176.167000 -5.935320 -3.759610 39.081100 -0.000007 -0.000012 -0.068153 0.165604 22.369100 40.985400 -0.000006 -0.000013 0.422308 1.699840 -65.584300 11.754300 -0.000000 0.000003 -0.000043 -0.000493 -16.596700 -2.192510 6.469440 -0.000001 -179.724000 11.945400 178.840000 -39.081100 -0.002282 -0.040193 0.026830 -0.070345 18.476800 -40.985400 0.000008 0.000006 4.723110 7.335280 -64.496000 -11.754300 -0.000006 -0.000006 -0.006441 -0.074792 -19.617400
